<svg width="21" height="21" viewBox="0 0 21 21" fill="none" xmlns="http://www.w3.org/2000/svg">
<path d="M3.2478 18.335V14.7933L14.2478 3.81413C14.4145 3.66135 14.5986 3.54329 14.8003 3.45996C15.002 3.37663 15.2136 3.33496 15.4353 3.33496C15.657 3.33496 15.8722 3.37663 16.0811 3.45996C16.29 3.54329 16.4706 3.66829 16.6228 3.83496L17.7686 5.00163C17.9353 5.15441 18.057 5.33496 18.1336 5.54329C18.2103 5.75163 18.2484 5.95996 18.2478 6.16829C18.2478 6.39052 18.2097 6.60246 18.1336 6.80413C18.0575 7.00579 17.9359 7.18968 17.7686 7.35579L6.78947 18.335H3.2478ZM15.4145 7.33496L16.5811 6.16829L15.4145 5.00163L14.2478 6.16829L15.4145 7.33496Z" fill="white"/>
</svg>
